<svg xmlns="http://www.w3.org/2000/svg" viewBox="0 0 100 100">
    <defs><radialGradient id="sol-code" cx="0.5" cy="0.5" r="0.5">
      <stop offset="0.35" stop-color="#F4B41A"/><stop offset="1" stop-color="#D98E04"/>
    </radialGradient></defs>
    <g fill="url(#sol-code)"><path d="M50.00 6.00 L51.12 32.00 L48.88 32.00 Z"/><path d="M57.61 11.75 L54.61 32.56 L52.41 32.13 Z"/><path d="M66.84 9.35 L57.92 33.80 L55.85 32.94 Z"/><path d="M71.67 17.57 L60.93 35.66 L59.07 34.41 Z"/><path d="M81.11 18.89 L63.52 38.06 L61.94 36.48 Z"/><path d="M82.43 28.33 L65.59 40.93 L64.34 39.07 Z"/><path d="M90.65 33.16 L67.06 44.15 L66.20 42.08 Z"/><path d="M88.25 42.39 L67.87 47.59 L67.44 45.39 Z"/><path d="M94.00 50.00 L68.00 51.12 L68.00 48.88 Z"/><path d="M88.25 57.61 L67.44 54.61 L67.87 52.41 Z"/><path d="M90.65 66.84 L66.20 57.92 L67.06 55.85 Z"/><path d="M82.43 71.67 L64.34 60.93 L65.59 59.07 Z"/><path d="M81.11 81.11 L61.94 63.52 L63.52 61.94 Z"/><path d="M71.67 82.43 L59.07 65.59 L60.93 64.34 Z"/><path d="M66.84 90.65 L55.85 67.06 L57.92 66.20 Z"/><path d="M57.61 88.25 L52.41 67.87 L54.61 67.44 Z"/><path d="M50.00 94.00 L48.88 68.00 L51.12 68.00 Z"/><path d="M42.39 88.25 L45.39 67.44 L47.59 67.87 Z"/><path d="M33.16 90.65 L42.08 66.20 L44.15 67.06 Z"/><path d="M28.33 82.43 L39.07 64.34 L40.93 65.59 Z"/><path d="M18.89 81.11 L36.48 61.94 L38.06 63.52 Z"/><path d="M17.57 71.67 L34.41 59.07 L35.66 60.93 Z"/><path d="M9.35 66.84 L32.94 55.85 L33.80 57.92 Z"/><path d="M11.75 57.61 L32.13 52.41 L32.56 54.61 Z"/><path d="M6.00 50.00 L32.00 48.88 L32.00 51.12 Z"/><path d="M11.75 42.39 L32.56 45.39 L32.13 47.59 Z"/><path d="M9.35 33.16 L33.80 42.08 L32.94 44.15 Z"/><path d="M17.57 28.33 L35.66 39.07 L34.41 40.93 Z"/><path d="M18.89 18.89 L38.06 36.48 L36.48 38.06 Z"/><path d="M28.33 17.57 L40.93 34.41 L39.07 35.66 Z"/><path d="M33.16 9.35 L44.15 32.94 L42.08 33.80 Z"/><path d="M42.39 11.75 L47.59 32.13 L45.39 32.56 Z"/></g>
    
    <circle cx="50" cy="50" r="16" fill="none" stroke="#74ACDF" stroke-width="2.3"/>
    <circle cx="50" cy="50" r="12.8" fill="#14305C"/><path d="M44.5 46.43 L40.5 50 L44.5 53.57
      M55.5 46.43 L59.5 50 L55.5 53.57
      M51.8 45.93 L48.2 54.07"
      fill="none" stroke="#EAF4FB" stroke-width="2.1" stroke-linecap="round" stroke-linejoin="round"/>
  </svg>